<svg width="46" height="51" viewBox="0 0 46 51" fill="none" xmlns="http://www.w3.org/2000/svg">
<path d="M26 3C26 1.34315 24.6569 0 23 0C21.3431 0 20 1.34315 20 3H26ZM20.8787 50.1213C22.0503 51.2929 23.9497 51.2929 25.1213 50.1213L44.2132 31.0294C45.3848 29.8579 45.3848 27.9584 44.2132 26.7868C43.0416 25.6152 41.1421 25.6152 39.9706 26.7868L23 43.7574L6.02944 26.7868C4.85786 25.6152 2.95837 25.6152 1.7868 26.7868C0.615224 27.9584 0.615224 29.8579 1.7868 31.0294L20.8787 50.1213ZM20 3L20 48H26L26 3H20Z" fill="#F1F1F1" fill-opacity="0.55"/>
</svg>
