<svg xmlns="http://www.w3.org/2000/svg" viewBox="0 0 32 32" id="bonus"><g><path d="M21 6a9.98 9.98 0 0 0-7.9833 4.0034L13 10H7a1 1 0 0 0 0 2h4.8409a9.9129 9.9129 0 0 0-.79 3H4a1 1 0 0 0 0 2h7.0507a9.9121 9.9121 0 0 0 .79 3H7a1 1 0 0 0 0 2h6l.0167-.0034A10.0657 10.0657 0 0 0 15.0258 24H12a1 1 0 0 0 0 2h8a.957.957 0 0 0 .2009-.0405c.2644.021.5294.0405.7991.0405A10 10 0 0 0 21 6zm1.0876 14.3967a.6464.6464 0 0 0-.46.6267V21.34a.66.66 0 0 1-.66.66h-.1452a.66.66 0 0 1-.66-.66v-.1347a.6563.6563 0 0 0-.5733-.6515 6.558 6.558 0 0 1-1.4378-.3415.6522.6522 0 0 1-.39-.7795l.1112-.4268a.6655.6655 0 0 1 .8883-.4439 5.17 5.17 0 0 0 1.79.3343c.8522 0 1.4352-.3227 1.4352-.9115 0-.5583-.478-.9115-1.5846-1.28-1.6-.53-2.6907-1.2649-2.6907-2.691A2.6162 2.6162 0 0 1 19.7778 11.51a.6791.6791 0 0 0 .4594-.6579V10.66a.66.66 0 0 1 .66-.66h.1453a.66.66 0 0 1 .66.66v.0281a.657.657 0 0 0 .5742.6519 5.6229 5.6229 0 0 1 .9873.2039.6656.6656 0 0 1 .4579.8027l-.0982.3771a.6624.6624 0 0 1-.8586.4523 4.6429 4.6429 0 0 0-1.4811-.2355c-.9719 0-1.2858.4117-1.2858.8243 0 .485.5232.7937 1.7939 1.2639 1.7787.6185 2.4969 1.427 2.4969 2.75A2.7309 2.7309 0 0 1 22.0876 20.3967zM2 12H4a1 1 0 0 0 0-2H2a1 1 0 0 0 0 2z"></path><path d="M9 24H6a1 1 0 0 0 0 2H9a1 1 0 0 0 0-2zM3 24H2a1 1 0 0 0 0 2H3a1 1 0 0 0 0-2z"></path></g></svg>